ply
format ascii 1.0
element vertex 150
property float x
property float y
property float z
property uchar red
property uchar green
property uchar blue
end_header
1.133343 -0.022263 -1.307080 58 26 20
0.154130 -1.202722 -1.816754 55 36 39
0.035152 -1.183082 -1.849907 69 46 50
0.035152 -1.183082 -1.849907 70 46 48
0.077121 -1.205083 -1.898621 114 59 44
-0.008501 -1.159788 -1.803827 199 184 158
0.012080 -1.177550 -1.855000 87 68 71
0.544464 -0.707273 -2.225227 124 75 59
0.534785 -0.701940 -2.308466 98 69 65
0.486552 -0.787156 -2.421185 70 55 52
0.475044 -0.747624 -2.620892 212 152 130
0.475044 -0.747624 -2.620892 246 203 186
0.475044 -0.747624 -2.620892 246 203 186
0.475019 -0.729089 -2.662510 70 49 47
0.475019 -0.729089 -2.662510 210 174 164
0.428385 -0.832981 -2.757042 205 172 153
0.423866 -0.837471 -2.767965 134 102 91
0.438978 -0.788734 -2.858411 73 57 58
0.430189 -0.804846 -2.879387 109 88 91
0.436474 -0.785932 -2.879915 114 92 97
0.436474 -0.785932 -2.879915 126 98 111
0.415174 -0.838657 -2.876233 141 106 92
0.409256 -0.848378 -2.892637 141 106 92
0.407558 -0.849415 -2.987286 204 155 105
0.420446 -0.814542 -2.991025 255 209 191
0.422382 -0.781839 -3.054529 147 116 113
-0.070615 0.690333 -2.966212 217 162 101
0.302815 -0.991608 -3.964073 83 62 71
0.298363 -0.985895 -4.105380 155 123 118
0.240388 -1.071276 -4.809225 91 64 67
0.240388 -1.071276 -4.809225 91 64 67
-0.160082 0.426966 -4.923509 90 66 76
-0.129498 0.455017 -4.778590 91 65 71
0.201779 -1.189522 -5.039445 74 56 69
0.205193 -1.176563 -5.086533 74 56 69
0.196116 -1.200048 -5.056142 140 111 107
0.218725 -1.118927 -5.073656 154 120 114
-0.117204 0.458709 -4.830395 88 66 78
0.195612 -1.188942 -5.197715 128 96 107
0.195612 -1.188942 -5.197715 247 207 188
0.182105 -1.223696 -5.241740 247 207 188
0.194423 -1.156019 -5.191840 68 24 23
0.189504 -1.179005 -5.240080 108 87 86
0.177395 -1.216038 -5.233843 255 216 202
0.193069 -1.169360 -5.287552 88 53 43
0.193749 -1.161749 -5.355480 255 219 205
0.179041 -1.216873 -5.368240 116 85 82
-0.200620 -0.812584 -4.832013 173 120 107
-0.089737 0.411950 -5.162185 253 214 200
-0.045196 0.390078 -5.361513 95 38 29
-0.051873 0.255485 -7.202242 108 48 26
-0.056867 0.218079 -7.375603 198 144 121
0.044873 -1.586189 -7.264535 75 32 17
-0.029774 0.265006 -7.126890 75 32 17
0.023782 -1.572638 -7.261214 200 172 161
-0.015633 0.256064 -7.474058 120 80 62
0.024335 -1.556104 -7.366233 185 143 120
0.024335 -1.556104 -7.366233 84 58 46
0.002168 0.267404 -6.125972 64 41 45
-0.008361 1.625477 -7.460007 44 36 37
0.000126 1.630123 -7.639503 65 47 40
0.009204 0.258389 -7.416767 99 74 72
0.011336 0.266773 -8.054458 102 74 63
0.011336 0.266773 -8.054458 64 43 35
0.002940 1.636653 -7.723687 255 226 208
0.006477 0.252299 -8.518926 67 40 30
0.005781 1.632001 -7.747325 198 159 137
0.008631 1.631712 -7.795588 184 137 115
0.011579 1.638325 -7.877539 223 181 162
0.028004 0.262713 -9.529045 60 36 30
0.014399 1.639243 -7.936493 177 130 108
-0.022434 -0.236051 -11.479169 145 112 96
-0.027160 -0.241593 -10.680079 77 42 29
-0.002347 -0.324416 -39.654167 115 80 67
-0.006591 -0.010752 -5.187297 54 30 24
-0.047142 -0.220349 -9.988529 72 44 33
-0.045302 -0.137587 -12.156369 136 110 103
-0.045302 -0.137587 -12.156369 167 140 136
-0.018240 0.013167 -6.407211 153 126 122
-0.072952 -0.202061 -9.033313 177 145 139
0.007390 0.407534 -7.875744 176 146 141
-0.042920 0.006111 -8.143486 167 140 130
-0.017615 0.150791 -7.179657 49 29 28
-0.021345 0.117903 -6.832917 166 140 128
-0.032186 0.065150 -7.152899 98 77 86
-0.024690 0.090047 -6.395963 121 100 102
-0.020604 0.192490 -7.701824 118 95 100
-0.024630 0.098768 -6.003289 63 47 54
-0.030651 0.082639 -6.474950 63 47 54
-0.026027 0.133838 -6.898721 94 77 80
-0.081819 -0.108062 -9.643281 121 98 102
-0.057353 0.015274 -8.821727 109 85 95
-0.028071 0.103382 -5.916184 106 86 91
-0.099885 -0.194544 -9.093695 42 29 37
-0.041491 0.042103 -6.335007 42 29 37
-0.015228 0.380011 -8.609019 92 75 78
-0.033353 0.107457 -6.166235 90 70 75
-0.033353 0.107457 -6.166235 90 70 75
-0.090369 -0.115736 -9.161623 136 107 103
-0.035795 0.088519 -6.084755 97 75 77
-0.097370 -0.141159 -8.975318 63 55 56
-0.040079 0.107977 -6.548160 71 52 61
-0.085353 -0.056303 -8.948177 75 61 63
-0.085353 -0.056303 -8.948177 43 34 37
-0.093686 -0.093818 -9.019786 67 59 60
-0.080300 0.047607 -9.021167 149 116 113
-0.137741 -0.063913 -12.570212 95 83 79
-0.056083 0.185688 -7.853283 72 51 54
-0.140307 -0.034405 -12.545045 34 29 28
-0.140307 -0.034405 -12.545045 143 123 128
0.161545 2.293763 -11.315649 138 117 120
-0.049069 0.987821 -10.682776 136 115 123
-0.103268 0.116540 -9.471118 58 40 41
-0.103268 0.116540 -9.471118 54 39 43
0.002827 -0.255614 -0.938471 122 105 109
0.002827 -0.255614 -0.938471 107 85 97
-0.083034 0.269381 -9.051638 107 85 97
-0.089495 0.240762 -9.218907 92 83 80
-0.094570 0.203605 -9.171089 141 120 128
-0.109443 0.179785 -9.721842 99 94 93
-0.109443 0.179785 -9.721842 194 154 142
-0.091682 0.336665 -9.603388 43 33 33
0.198515 2.268018 -11.089626 147 121 121
-0.094905 0.503309 -11.283643 67 53 55
-0.111562 0.191632 -9.695786 33 27 28
-0.101479 0.267880 -9.562115 157 129 129
-0.101479 0.267880 -9.562115 147 130 134
-0.104121 0.300160 -9.825720 123 106 119
-0.143868 0.119632 -11.003439 61 39 27
-0.114979 0.233851 -9.983876 118 102 113
0.224199 2.368867 -11.298335 89 71 78
-0.141711 0.153445 -10.864764 130 110 105
-0.114469 0.332605 -10.125377 104 77 87
0.241023 2.408425 -11.455057 60 44 45
-0.128462 0.400945 -10.829450 137 119 132
-0.178613 0.174001 -11.706127 28 23 24
-0.152536 0.356419 -11.411136 28 23 24
-0.137925 0.384571 -10.493533 137 117 129
-0.195970 0.153929 -12.405284 112 57 52
-0.193987 0.196573 -12.342406 203 173 172
-0.198904 0.171282 -12.408256 118 102 103
-0.127824 1.181580 -11.298076 118 102 103
-0.188086 0.343000 -12.547118 82 63 66
-0.212643 0.184955 -12.673825 105 79 92
-0.224452 0.159633 -13.058416 105 79 92
-0.214432 0.236995 -12.992355 124 108 119
-0.228947 0.207180 -13.055693 105 73 97
-0.222718 0.255329 -12.850130 254 232 226
-0.209621 0.393371 -13.038031 183 162 165
-0.209621 0.393371 -13.038031 79 71 71
