ply
format ascii 1.0
element vertex 1241
property float x
property float y
property float z
property uchar red
property uchar green
property uchar blue
end_header
-6.477697 -0.716259 7.011757 48 70 81
-6.379268 -0.464058 6.934393 107 126 133
-6.381007 -0.991201 6.980244 34 54 59
-6.442176 -0.989215 7.068786 57 76 83
-6.356591 -1.063643 7.092391 45 65 70
-6.371453 -0.915578 7.118769 98 120 126
-6.258479 -0.444726 6.989175 53 84 93
-6.258831 -0.437721 7.001545 120 139 146
-6.254343 -0.775418 7.048107 96 122 129
-6.231110 -0.921699 7.083649 40 64 70
-6.252329 -0.757997 7.127323 93 122 127
-6.172892 -1.035055 7.103595 102 127 131
-6.187405 -0.905174 7.129936 42 68 75
-6.208996 -1.030278 7.196559 43 69 75
-6.225373 -0.708621 7.264025 44 71 81
-6.216085 -0.717613 7.256409 102 128 135
-6.100861 -0.876243 7.194880 44 71 81
-6.118813 -0.860625 7.221901 53 80 90
-6.118813 -0.860625 7.221901 53 80 90
-6.543237 0.625076 7.738917 37 56 64
-6.496421 0.574089 7.691775 91 118 128
-6.496421 0.574089 7.691775 91 118 128
-6.516774 0.615323 7.720013 105 127 132
-9.743118 1.609033 11.616052 208 206 206
-9.702968 1.655936 11.581237 215 214 216
-6.493676 0.601388 7.717641 100 126 132
-9.739485 1.688510 11.646874 214 211 213
-9.758012 1.633624 11.673862 144 144 144
-6.124670 -0.746960 7.298131 51 79 86
-6.393683 0.508833 7.686990 53 83 94
-6.413581 0.530962 7.711688 110 135 139
-6.412518 0.531049 7.710539 110 135 139
-5.625346 -0.423952 6.757193 51 80 87
-6.390951 0.516336 7.702120 106 133 143
-6.392722 0.524223 7.709590 22 48 55
-6.436419 0.576434 7.813753 39 61 67
-9.799095 1.815770 12.174224 173 171 171
-9.809395 1.825571 12.224131 221 222 220
-9.815968 1.552142 12.255545 233 231 231
-9.743571 2.157781 12.183023 227 229 229
-9.808633 1.883243 12.267449 208 206 205
-2.912861 -0.383353 3.553919 113 136 151
-9.814611 1.859454 12.295863 105 111 110
-9.799727 1.863903 12.298271 190 194 195
-9.794418 1.839009 12.306640 67 85 96
-9.816228 1.698243 12.353607 254 254 254
-9.806878 1.720178 12.341058 238 241 245
-9.797152 1.836989 12.337508 171 178 187
-9.818817 1.712874 12.368213 166 168 168
-9.817882 1.745469 12.374009 158 162 167
-9.800809 1.762640 12.377969 203 210 213
-9.777535 1.848804 12.349662 145 150 153
-9.730853 2.253932 12.352514 222 224 225
-9.736430 2.296036 12.378778 130 137 140
-9.779370 1.892081 12.431550 150 154 155
-9.786093 1.925973 12.455588 69 81 85
-9.796220 1.974455 12.468944 225 223 223
-2.850609 -0.326444 3.533413 161 176 185
-9.817249 1.957694 12.509249 217 219 219
-9.789340 1.965119 12.469635 118 120 120
-9.775496 1.912995 12.453630 173 182 186
-9.779806 2.015868 12.482155 210 211 209
-9.806713 1.796199 12.520088 242 244 245
-2.820012 -0.255054 3.547639 174 185 193
-9.605176 2.708564 12.439430 178 183 184
-2.776109 -0.219774 3.550382 90 115 125
-4.941235 -1.764738 6.441141 72 91 98
-5.927117 0.680074 7.779531 73 94 102
-2.766342 -0.293569 3.562058 90 113 128
-2.733794 -0.367147 3.530333 105 133 144
-2.733794 -0.367147 3.530333 105 133 144
-2.731438 -0.338835 3.540263 84 110 124
-2.731438 -0.338835 3.540263 84 110 124
-2.717170 -0.410230 3.526425 134 153 160
-9.754153 1.940044 13.030877 255 255 252
-2.747166 -0.197200 3.573966 81 105 117
-4.863315 -1.757449 6.425685 72 94 100
-2.724485 -0.434273 3.546851 88 116 127
-2.718334 -0.344714 3.538685 90 116 133
-2.718334 -0.344714 3.538685 90 116 133
-2.734624 -0.201559 3.571048 126 145 153
-9.694583 1.795505 13.017951 186 189 193
-9.694583 1.795505 13.017951 186 189 193
-2.701272 -0.381353 3.530698 139 158 166
-2.702710 -0.388719 3.534857 36 58 70
-2.699463 -0.398116 3.535966 89 117 124
-2.742837 -0.181676 3.600967 125 144 152
-2.706672 -0.315248 3.558761 157 174 183
-9.775520 2.089782 13.207057 174 178 179
-2.708704 -0.461940 3.569383 60 94 110
-9.655117 2.455858 13.102400 252 250 250
-9.729514 1.967574 13.203997 249 253 254
-9.723809 1.950732 13.198918 173 176 181
-9.724340 1.935143 13.203926 250 254 255
-9.630890 2.313676 13.106469 170 173 177
-2.677613 -0.425292 3.561127 89 118 132
-2.691764 -0.203305 3.589765 68 97 111
-9.700840 1.866206 13.311078 232 229 225
-2.686111 -0.208065 3.593899 74 102 119
-9.625186 2.451083 13.278212 251 253 253
-2.696282 -0.170731 3.622110 153 167 179
-9.675877 2.415510 13.396295 215 210 211
-9.560522 2.441232 13.319219 137 141 142
-9.605845 2.312986 13.457271 212 210 210
-2.645808 -0.185669 3.622011 65 91 103
-2.635705 -0.202002 3.607874 87 107 118
-2.549689 -0.495008 3.496806 47 70 78
-2.549838 -0.470771 3.513898 89 118 132
-2.661369 -0.104144 3.690712 37 63 75
-9.613117 1.663692 13.685239 158 156 156
-2.607677 -0.203547 3.613485 66 96 107
-2.607677 -0.203547 3.613485 66 96 107
-8.506451 3.504248 12.117166 82 101 109
-8.496823 3.513940 12.107084 125 144 151
-8.496823 3.513940 12.107084 125 144 151
-8.761169 2.774369 12.496826 166 171 170
-9.433112 2.889701 13.468624 206 206 206
-2.645915 -0.148899 3.680266 40 66 80
-9.583759 2.921943 13.694681 207 209 209
-2.603292 -0.195961 3.621506 69 92 107
-9.414412 2.913461 13.467956 161 163 163
-2.542705 -0.491077 3.537619 160 177 186
-9.473264 2.802140 13.561063 188 194 199
-9.442594 2.834488 13.546862 195 200 203
-9.394583 2.769403 13.514645 183 192 195
-9.569267 1.931507 13.771369 138 143 146
-2.492503 -0.436350 3.501939 101 130 137
-2.492503 -0.436350 3.501939 101 130 137
-8.936651 3.428292 12.927175 107 123 130
-8.854072 3.484456 12.856037 99 121 127
-2.575738 -0.178824 3.653386 67 95 106
-2.618876 -0.106710 3.731558 38 57 65
-2.466499 -0.493381 3.515604 155 168 176
-2.558736 -0.144354 3.690624 53 82 97
-7.727824 4.158629 11.447978 131 153 159
-2.437945 -0.443288 3.514895 166 178 188
-2.652400 0.032300 3.852691 63 84 92
-9.411616 1.313575 14.016416 255 255 251
-9.387913 1.308424 14.045036 237 245 245
-7.845489 4.081598 11.774231 96 112 118
-9.320549 2.548562 14.027905 124 132 139
-2.529225 -0.140961 3.709613 64 96 109
-7.649860 4.681629 11.516340 48 69 77
-2.533983 -0.122357 3.720547 156 174 185
-2.426184 -0.247937 3.582272 92 119 133
-9.330875 1.438274 14.171284 218 216 215
-7.472461 4.254978 11.351813 74 101 111
-9.300583 1.249913 14.191209 72 84 86
-7.968966 3.740667 12.152431 89 115 122
-9.273593 1.247955 14.216119 223 228 231
-2.404655 -0.219902 3.592731 100 118 129
-2.404655 -0.219902 3.592731 100 118 129
-2.387726 -0.243130 3.581688 97 116 129
-7.759708 3.908920 11.970752 99 115 121
-7.759708 3.908920 11.970752 99 115 121
-9.266057 2.291640 14.315684 157 168 176
-9.274977 2.272786 14.337005 64 86 97
-9.222123 2.030740 14.359179 154 173 181
-7.535780 4.463096 11.733003 40 68 75
-9.227882 1.568921 14.418443 251 250 246
-2.353618 -0.251607 3.579746 99 118 133
-7.751894 3.779013 12.139574 99 118 125
-2.347136 -0.262260 3.577278 99 121 132
-9.192819 1.564529 14.430663 208 212 213
-7.779640 3.808481 12.214951 159 173 179
-2.340088 -0.264312 3.578968 103 123 134
-9.126030 2.936658 14.429547 30 42 48
-9.126030 2.936658 14.429547 30 42 48
-9.164603 1.431627 14.490568 209 216 219
-1.956884 -0.022981 3.007351 184 195 199
-7.272844 4.224056 11.579423 138 157 164
-7.250580 4.213561 11.560225 135 149 155
-1.953854 0.050297 3.028764 53 75 86
-2.296105 -0.276266 3.582083 89 112 127
-2.292860 -0.264134 3.581181 101 121 132
-2.289605 -0.308581 3.590937 57 84 98
-4.898959 0.678822 7.854599 209 221 225
-2.088133 0.197820 3.268511 114 130 137
-9.034037 1.496522 14.609288 152 178 190
-2.275555 -0.279073 3.586292 143 163 168
-2.272521 -0.265627 3.581884 95 110 119
-4.872861 0.684997 7.852205 213 222 225
-9.038967 1.983809 14.669215 240 242 242
-2.270824 -0.269893 3.583421 94 116 127
-2.274026 -0.285247 3.590621 80 104 116
-9.001405 1.968853 14.646711 241 243 243
-1.930595 0.102309 3.034906 69 98 107
-1.922966 0.070168 3.038446 113 142 151
-9.001231 1.899668 14.745025 218 219 215
-4.813599 0.688565 7.843153 204 214 214
-1.923261 0.123484 3.051451 79 108 117
-7.433694 3.492706 12.225142 165 174 178
-1.909236 0.044232 3.035514 50 77 87
-2.240910 -0.274042 3.588973 86 109 117
-1.905839 0.081385 3.038955 63 89 96
-2.519843 2.191282 4.094672 79 101 107
-2.227197 -0.273587 3.592649 124 151 161
-2.224544 -0.266873 3.588483 55 86 101
-2.224544 -0.266873 3.588483 55 86 101
-1.892309 0.019444 3.034437 64 89 99
-8.872516 2.028514 14.742078 141 149 156
-8.834746 2.035409 14.684484 209 216 219
-7.433274 3.602080 12.336623 153 169 176
-1.894519 0.103230 3.042325 71 93 99
-7.346564 3.694374 12.214177 86 105 112
-2.544756 2.143945 4.157621 80 102 108
-1.891821 0.128569 3.046542 131 153 159
-8.878160 1.876632 14.804846 228 230 230
-7.337548 3.715462 12.223309 90 108 115
-1.887148 0.121774 3.045870 53 71 78
-1.888755 0.116159 3.050728 61 84 92
-1.875569 -0.006512 3.032054 57 86 95
-7.415701 3.547141 12.417273 154 163 166
-1.883284 0.141566 3.049426 141 160 167
-1.871234 -0.026202 3.033304 132 157 167
-1.871234 -0.026202 3.033304 132 157 167
-1.880834 0.130898 3.051397 50 74 86
-7.211753 3.745973 12.129668 143 155 159
-1.854036 -0.017055 3.029619 59 85 92
-7.180653 3.738332 12.183514 156 169 171
-1.845674 -0.018999 3.035341 100 124 130
-7.112555 3.712688 12.151883 122 141 146
-1.838308 0.176477 3.064517 69 96 106
-2.756495 1.725167 4.675615 45 67 73
-1.821732 -0.023038 3.038322 116 136 141
-2.683014 1.646588 4.575241 92 114 119
-1.829113 0.162358 3.075844 57 84 94
-1.829113 0.162358 3.075844 57 84 94
-1.823569 0.103885 3.087558 63 92 99
-1.823569 0.103885 3.087558 63 92 99
-8.480440 1.708496 15.077064 144 153 157
-2.205338 0.955255 3.836623 49 75 81
-8.561369 2.538588 15.321303 66 81 84
-8.601859 2.611383 15.452362 59 75 81
-8.529593 2.505625 15.355443 121 137 144
-8.517640 2.553355 15.338394 53 72 77
-1.776416 0.117597 3.114350 59 92 101
-1.776416 0.117597 3.114350 59 92 101
-8.322638 2.004241 15.113775 64 83 88
-8.223865 1.818620 14.979401 192 197 198
-3.153680 0.998834 5.661387 55 80 84
-8.221798 1.827621 14.990169 199 204 203
-8.289667 1.748756 15.131449 184 192 192
-8.260183 1.796987 15.090593 201 201 201
-2.693969 -2.660926 4.804525 156 165 169
-2.688890 -2.642702 4.795226 156 164 171
-8.227919 1.760353 15.038930 196 201 200
-3.203862 0.917368 5.787026 53 75 80
-8.274077 1.754997 15.173139 110 122 124
-8.255754 1.616691 15.136735 192 199 196
-3.224994 -1.825035 5.855302 84 106 111
-1.748804 0.114991 3.123884 59 91 104
-2.309866 2.264385 4.199394 97 119 124
-1.737594 0.047853 3.111973 116 144 151
-1.721066 -0.029129 3.100921 27 51 63
-1.719241 0.047425 3.117334 66 102 110
-1.725956 0.081327 3.131424 62 94 107
-2.563601 1.866574 4.737853 32 49 52
-2.421024 2.043667 4.484166 105 127 133
-2.421024 2.043667 4.484166 105 127 133
-2.278133 2.259083 4.218565 37 57 62
-2.630975 1.732694 4.901765 85 114 119
-1.693492 0.066226 3.138338 53 88 101
-1.693492 0.066226 3.138338 53 88 101
-2.269489 2.205880 4.280957 118 135 138
-1.689402 0.074154 3.141372 113 143 154
-2.645177 1.625973 5.022506 111 131 136
-2.504708 1.850752 4.754509 43 63 68
-3.132760 0.887200 6.014923 90 119 126
-2.822200 1.341787 5.437521 107 127 132
-2.349354 2.093851 4.513017 96 118 124
-2.480673 1.835476 4.783835 93 119 126
-2.247742 2.205543 4.326532 41 61 66
-2.341075 2.032414 4.519855 63 87 93
-2.476519 1.813598 4.797367 129 149 154
-1.657331 0.087663 3.157535 51 80 89
-1.654361 0.077283 3.158814 103 130 134
-2.196869 2.329351 4.260741 76 99 101
-2.599909 1.681738 5.061365 88 110 115
-1.652312 0.081975 3.162201 41 70 79
-2.592471 1.600048 5.073210 123 149 155
-2.220098 2.314000 4.333144 101 121 126
-1.644130 0.073562 3.161909 110 134 140
-2.594334 1.560188 5.108484 126 144 145
-2.306348 2.079596 4.530462 114 138 144
-2.306348 2.079596 4.530462 114 138 144
-2.832367 1.237196 5.585261 43 68 72
-2.832367 1.237196 5.585261 43 68 72
-2.595554 1.575175 5.123612 36 60 66
-2.432010 1.819867 4.799229 67 89 94
-2.708102 1.406850 5.358004 126 148 154
-2.828168 1.267660 5.607786 105 134 141
-2.947060 1.041518 5.853968 45 71 77
-2.154695 2.318317 4.266228 114 135 137
-2.815108 1.221288 5.609216 115 139 145
-2.418389 1.825631 4.807791 57 83 90
-2.292660 2.034822 4.553530 102 126 132
-2.678952 1.487684 5.340130 42 62 67
-2.146274 2.285371 4.274320 101 129 136
-2.928609 1.038380 5.865457 120 146 152
-2.539438 1.695939 5.082420 102 124 130
-2.276571 2.092037 4.548466 43 71 78
-2.277040 2.092302 4.549573 43 71 78
-2.406566 1.824862 4.818048 115 137 142
-3.043211 0.881425 6.132338 105 131 137
-2.659090 1.479110 5.355844 113 139 145
-2.264745 2.073426 4.547645 115 138 146
-2.644675 1.457452 5.350925 61 83 88
-3.159509 0.637903 6.431888 50 81 90
-3.159509 0.637903 6.431888 50 81 90
-2.638106 1.422268 5.366983 121 145 151
-2.884230 1.101819 5.898857 102 127 131
-2.747477 1.253220 5.622628 63 88 92
-2.620217 1.466962 5.361664 49 78 85
-2.608896 1.469055 5.352679 126 150 156
-2.988186 0.883928 6.155067 115 144 149
-2.979299 0.852237 6.159679 117 146 150
-1.543231 -0.272439 3.182950 57 89 102
-2.614195 -1.998872 5.513136 150 169 174
-2.201891 1.854341 4.742278 92 114 119
-2.305515 1.675160 5.008154 82 112 117
-2.305515 1.675160 5.008154 82 112 117
-2.305461 1.695122 5.011134 86 108 113
-2.180301 1.829601 4.748187 94 114 119
-2.180301 1.829601 4.748187 94 114 119
-2.163254 1.910543 4.746116 54 83 88
-2.163254 1.910543 4.746116 54 83 88
-2.119855 -2.579077 4.696230 184 194 201
-2.119855 -2.579077 4.696230 184 194 201
-2.118334 -2.570493 4.703566 190 201 205
-2.237321 1.707677 5.037411 53 82 87
-2.356501 1.504344 5.321593 51 84 93
-1.872213 2.344805 4.220679 105 125 130
-2.465781 1.318303 5.593579 46 75 84
-2.224445 1.696681 5.041173 130 156 162
-2.108050 1.926547 4.773914 102 131 138
-2.688692 0.912090 6.118259 56 90 96
-2.567840 1.095919 5.851585 121 150 155
-1.862575 2.302505 4.223780 111 135 141
-2.567468 1.080802 5.857818 124 154 159
-2.679940 0.912279 6.120236 129 159 164
-1.984186 2.066939 4.506591 108 130 135
-2.452588 1.336497 5.598163 105 134 139
-2.094931 1.893832 4.768288 65 97 103
-2.210424 1.648467 5.046578 123 149 155
-1.446252 0.128511 3.243740 75 101 107
-2.323098 1.440928 5.314038 101 130 135
-2.800412 0.776250 6.427572 91 120 124
-2.093736 1.939583 4.782157 105 127 133
-2.093736 1.939583 4.782157 105 127 133
-2.555349 1.052308 5.859851 122 151 155
-2.085336 1.866214 4.767032 62 86 92
-2.085388 1.866253 4.767227 62 86 92
-2.085388 1.866253 4.767227 62 86 92
-2.318086 1.483666 5.318638 69 96 100
-2.195514 1.650758 5.046178 109 134 136
-2.204990 1.743745 5.076617 52 78 84
-2.191165 1.658357 5.047971 63 89 95
-2.191165 1.658357 5.047971 63 89 95
-1.998383 1.903183 4.750422 78 105 115
-1.988897 1.862804 4.757351 92 117 121
-1.962725 -2.518676 4.728244 101 125 131
-1.321157 0.115294 3.181938 112 139 149
-2.080849 -2.222668 5.133300 76 106 111
-1.250859 0.018754 3.085558 148 172 178
-1.245218 0.028232 3.089395 58 84 96
-1.258231 0.116301 3.124645 92 117 127
-1.251025 0.182255 3.162705 150 169 176
-1.256132 0.198727 3.182620 65 95 106
-1.212540 -0.020943 3.078795 92 124 137
-2.177472 -1.729883 5.661022 80 105 109
-1.206737 -0.017730 3.078508 129 157 164
-1.198142 -0.036164 3.077550 68 102 115
-1.198142 -0.036164 3.077550 68 102 115
-1.200888 -0.004823 3.090033 70 105 118
-1.200888 -0.004823 3.090033 70 105 118
-1.191627 -0.034630 3.078386 134 162 169
-1.187418 -0.220092 3.086069 150 172 178
-1.187418 -0.220092 3.086069 150 172 178
-1.179360 -0.058357 3.088027 79 112 121
-2.341229 0.776812 6.314416 80 109 114
-2.341229 0.776812 6.314416 80 109 114
-1.677646 2.190352 4.500897 49 75 82
-2.341953 0.794303 6.323486 73 102 107
-2.081509 -1.774789 5.588339 179 194 197
-1.173851 -0.007151 3.095269 155 179 185
-1.225378 0.241891 3.242694 73 102 111
-1.190160 0.173061 3.159147 162 186 192
-1.144098 0.087243 3.046310 98 123 133
-1.158934 -0.043529 3.082379 151 177 184
-1.155152 -0.300292 3.156884 142 165 173
-1.151197 -0.313557 3.158940 74 100 106
-1.734800 1.650516 4.960710 79 109 114
-1.079207 0.142827 3.080858 81 117 127
-1.079207 0.142827 3.080858 81 117 127
-1.060671 -0.188653 3.023151 108 135 145
-1.060671 -0.188653 3.023151 108 135 145
-1.102961 0.278576 3.184273 101 127 134
-1.044683 0.109654 3.046308 78 110 123
-1.577518 -2.441147 4.691493 69 101 106
-1.033989 0.131937 3.044575 159 182 190
-1.056506 0.245589 3.123823 61 88 98
-1.026430 0.085640 3.028872 89 121 132
-1.018235 0.180763 3.059096 65 93 104
-1.590491 1.368649 4.918862 57 86 91
-1.590491 1.368649 4.918862 57 86 91
-0.995868 0.090546 3.018066 158 179 187
-0.952789 -0.034893 2.930166 152 175 183
-0.971874 0.135918 3.017531 85 111 123
-1.681737 -1.923150 5.325250 84 110 116
-1.574216 -2.194837 4.986953 106 131 135
-0.955154 0.124962 3.006986 141 167 174
-0.955154 0.124962 3.006986 141 167 174
-1.457789 1.532663 4.694219 76 101 105
-0.863590 -0.182725 2.724429 139 162 170
-1.516420 1.339482 4.939725 115 136 138
-0.903898 -0.076372 2.893753 105 136 145
-0.890444 -0.106154 2.875426 87 120 129
-0.904121 0.048167 2.945383 63 97 110
-0.904121 0.048167 2.945383 63 97 110
-0.914251 0.111477 2.987764 77 106 120
-0.910332 0.126681 3.000393 84 112 123
-0.936603 0.212609 3.096622 80 112 123
-0.866542 -0.131598 2.869105 92 123 132
-1.247437 1.868908 4.252886 74 89 92
-0.863827 -0.105917 2.877124 108 135 145
-1.664267 0.889147 5.770427 36 61 65
-0.880460 0.135038 2.999258 89 114 124
-1.231439 1.815488 4.302551 116 133 136
-1.227475 1.839095 4.292689 76 95 100
-1.211681 1.840949 4.286588 107 125 126
-1.193572 1.880118 4.239404 125 138 140
-1.173993 1.915602 4.200082 123 142 145
-0.831368 0.108544 2.965894 96 125 134
-1.234274 -2.431937 4.540596 190 199 203
-1.196927 -2.423061 4.539773 190 202 204
-1.105663 -2.405022 4.549849 98 124 130
-1.283544 1.176898 5.384364 45 71 77
-1.101081 -2.407504 4.551054 105 134 139
-1.146199 1.621790 4.807936 114 141 145
-1.254121 -1.814533 5.313147 184 198 197
-1.246779 -1.815292 5.308008 69 89 90
-1.267789 1.095200 5.450090 34 56 61
-1.261441 1.130325 5.433918 40 62 67
-1.027252 1.857588 4.444934 45 74 78
-0.984344 1.723850 4.610826 90 118 125
-0.984344 1.723850 4.610826 90 118 125
-0.551851 -0.144859 2.591169 69 107 119
-0.576453 0.293047 2.790352 87 115 126
-0.584481 0.387787 2.862246 83 115 126
-0.562782 0.301942 2.792770 135 163 170
-0.549687 0.261242 2.772223 77 103 115
-0.516053 0.123122 2.593958 146 174 181
-0.516053 0.123122 2.593958 146 174 181
-0.549395 0.304077 2.796296 57 91 104
-0.497225 -0.168528 2.577360 68 107 116
-0.538259 0.346993 2.840207 71 109 121
-0.914969 1.475800 4.971721 45 70 74
-0.914969 1.475800 4.971721 45 70 74
-0.914569 1.395965 5.021976 134 152 153
-0.520973 0.273380 2.778962 67 102 115
-0.536997 0.386200 2.879168 40 66 78
-0.906417 1.405430 5.017081 36 58 64
-0.483493 -0.107619 2.608060 55 87 100
-0.889366 1.403014 5.007326 41 66 68
-0.524463 0.390904 2.876618 142 168 174
-0.477758 -0.322175 2.589108 94 120 126
-0.512963 0.591691 2.840023 35 57 68
-0.556418 -0.742100 3.062058 142 161 168
-0.551753 -0.750884 3.062363 46 68 79
-0.783135 -2.378994 4.450084 145 169 175
-0.789589 -2.355117 4.521282 142 168 174
-0.455933 -0.174176 2.574475 145 176 185
-0.497655 0.385213 2.878800 144 168 174
-0.707255 -2.358950 4.129300 42 58 64
-0.439833 0.018075 2.601455 102 138 146
-0.416348 -0.137209 2.567906 88 118 129
-0.634492 -2.436112 4.121210 76 98 103
-0.648745 -2.373840 4.226820 65 89 95
-0.724558 -1.940267 4.779741 15 34 41
-0.672287 -2.186734 4.513294 67 89 94
-0.676240 -2.122130 4.595643 70 95 99
-0.381859 -0.111757 2.568770 142 171 180
-0.634895 1.787115 4.493211 162 177 179
-0.414846 0.406559 2.871085 141 167 173
-0.389786 0.321455 2.684384 103 132 141
-0.408513 0.410988 2.867848 132 161 166
-0.620888 1.783352 4.499233 161 171 171
-0.400439 0.405719 2.858854 131 157 163
-0.373717 0.279627 2.664677 129 157 164
-0.373715 0.290785 2.666874 80 108 119
-0.367732 -0.001295 2.683515 47 73 79
-0.589695 1.773900 4.514871 165 173 172
-0.589695 1.773900 4.514871 165 173 172
-0.385934 0.428718 2.875723 111 141 146
-0.385934 0.428718 2.875723 111 141 146
-0.355065 0.227939 2.654838 41 70 75
-0.338356 -0.373504 2.508206 110 128 135
-0.356671 0.346180 2.696909 59 87 98
-0.573345 1.756393 4.530758 159 173 172
-0.345746 0.182538 2.660082 45 71 78
-0.541196 1.765520 4.518699 162 175 177
-0.305668 -0.461116 2.472242 109 125 131
-0.348374 0.553573 2.908387 47 74 84
-0.527880 1.781671 4.555889 59 90 91
-0.520026 1.770392 4.556181 39 68 75
-0.511167 1.808525 4.491875 111 141 142
-0.518755 1.727503 4.589247 116 141 143
-0.506810 1.798794 4.499476 55 81 87
-0.510653 1.731886 4.595316 43 72 77
-0.507982 1.704708 4.589924 60 87 91
-0.331035 0.503671 2.926215 101 130 139
-0.276057 -0.362971 2.473092 112 131 138
-0.435319 1.985909 4.233157 148 158 158
-0.428728 -2.469509 4.065880 120 146 153
-0.435536 -2.369383 4.239271 45 72 82
-0.428668 -2.390018 4.191350 149 169 174
-0.432864 -2.369370 4.248539 141 167 174
-0.430772 -2.369602 4.233175 128 154 160
-0.430921 -2.358666 4.252692 100 120 125
-0.426680 -2.372653 4.221647 138 162 168
-0.454672 -2.176782 4.539029 145 174 181
-0.426166 -2.368770 4.238849 96 122 128
-0.423967 -2.362590 4.248703 144 163 168
-0.420194 -2.353669 4.263442 26 42 48
-0.420194 -2.353669 4.263442 26 42 48
-0.419357 -2.349979 4.258201 26 42 48
-0.419357 -2.349979 4.258201 26 42 48
-0.405910 -2.356024 4.288471 26 32 31
-0.399745 -2.353957 4.257318 65 91 97
-0.391669 -2.364579 4.232517 92 114 120
-0.448826 1.394583 5.026678 26 49 51
-0.394450 -2.355998 4.276909 89 102 104
-0.391425 -2.338605 4.309433 38 40 40
-0.391425 -2.338605 4.309433 38 40 40
-0.254119 0.300457 2.777594 36 60 66
-0.375987 -2.392210 4.148430 41 43 43
-0.345484 -2.349508 4.265613 95 110 112
-0.337102 -2.360875 4.200187 80 102 107
-0.407170 1.185167 5.331799 94 123 127
-0.215820 0.239438 2.686728 71 103 116
-0.393331 1.163232 5.312757 37 58 60
-0.393522 1.163497 5.318701 39 59 64
-0.389033 1.143625 5.373855 28 50 55
-0.378645 1.158129 5.334404 41 65 71
-0.297559 1.596916 4.734140 145 160 162
-0.297559 1.596916 4.734140 145 160 162
-0.138214 -0.141813 2.610093 32 59 69
-0.138214 -0.141813 2.610093 32 59 69
-0.190884 -2.373004 4.172896 51 53 53
-0.113692 -0.387564 2.395519 113 139 146
-0.163812 2.003930 4.203580 80 104 110
-0.133452 0.585051 3.324914 104 130 136
-0.150960 2.099501 4.126798 58 80 85
-0.150523 2.044538 4.171556 115 136 138
-0.147848 2.030855 4.173282 34 57 59
-0.149348 -2.378203 4.181550 58 63 62
-0.149348 -2.378203 4.181550 58 63 62
-0.137183 2.029190 4.174831 60 83 85
-0.136316 -2.399106 4.190138 57 66 69
-0.136316 -2.399106 4.190138 57 66 69
-0.128506 -2.407069 4.196500 64 76 78
-0.123362 -2.409944 4.173162 50 57 60
-0.121375 -2.379536 4.157895 131 146 149
-0.115835 -2.405588 4.193268 146 156 156
-0.111410 -2.409567 4.179166 57 62 63
-0.111603 -2.398278 4.204669 89 101 103
-0.107834 -2.417051 4.155710 131 137 136
-0.099514 1.772351 4.512921 114 132 133
-0.101555 -2.391693 4.194230 133 145 147
-0.092779 -2.399168 4.190814 103 108 109
-0.090125 -2.395718 4.195381 67 74 77
-0.090125 -2.395718 4.195381 67 74 77
-0.083740 1.721686 4.575575 32 54 59
-0.052670 -0.551798 2.341513 112 130 137
-0.050367 -0.311912 2.368700 64 92 103
-0.079386 -2.394495 4.198140 61 68 71
-0.050268 0.308213 2.718096 100 135 145
-0.072691 -2.391981 4.196807 116 120 121
-0.027283 -0.676844 2.285298 81 107 113
-0.031212 1.526833 4.882318 49 70 72
-0.028410 1.476647 4.912306 95 120 122
-0.021295 1.594613 4.773519 56 81 85
-0.015933 1.480333 4.920128 26 46 51
-0.015581 1.451789 4.922322 38 57 62
-0.018203 -0.515588 2.275988 77 106 115
0.032518 -0.123733 2.579497 74 102 109
0.025054 -0.714360 2.275754 86 105 110
0.029532 -0.712807 2.274012 100 118 119
0.040952 -0.741461 2.280149 77 99 104
0.040952 -0.741461 2.280149 77 99 104
0.068164 0.416763 2.483984 59 94 104
0.086564 -0.614108 2.276755 69 92 100
0.133634 -0.078955 2.500055 96 125 134
0.140187 -0.308374 2.409636 90 122 133
0.138654 -0.510344 2.297304 132 154 159
0.291483 1.936004 4.278687 68 88 93
0.155401 -0.337996 2.371468 139 162 170
0.155401 -0.337996 2.371468 139 162 170
0.150466 -0.547132 2.282887 65 91 98
0.166682 -0.303218 2.407558 75 107 120
0.188036 -0.238096 2.506291 75 110 120
0.189199 -0.303777 2.400025 89 119 130
0.189199 -0.303777 2.400025 89 119 130
0.184924 -0.583557 2.281582 81 101 106
0.184924 -0.583557 2.281582 81 101 106
0.199021 -0.305207 2.394700 78 107 121
0.199021 -0.305207 2.394700 78 107 121
0.191287 -0.604520 2.284101 50 72 78
0.220487 0.393417 2.484638 70 106 122
0.212399 -0.303992 2.393676 74 106 117
0.206776 -0.465902 2.309888 65 87 93
0.253816 -1.124462 2.844427 35 37 37
0.407772 -2.293095 4.059813 63 67 68
0.283371 -1.116246 2.828561 30 45 48
0.237785 0.198495 2.317365 140 172 177
0.416711 -2.231057 4.072368 60 87 97
0.255969 0.383236 2.455370 146 173 183
0.398736 1.466275 3.758985 80 103 105
0.258950 -0.125664 2.459965 75 107 120
0.426767 -2.262673 4.054507 79 109 114
0.444385 -2.154130 4.191978 16 33 36
0.304909 -1.044335 2.802617 101 123 129
0.449706 -2.260637 4.104475 19 26 29
0.269666 0.163923 2.313625 72 107 120
0.269666 0.163923 2.313625 72 107 120
0.277825 0.167492 2.314701 111 148 156
0.291592 0.317371 2.395991 120 149 158
0.334081 -1.049621 2.787682 81 103 108
0.334081 -1.049621 2.787682 81 103 108
0.338121 -1.105996 2.798241 14 16 16
0.338121 -1.105996 2.798241 14 16 16
0.283164 0.175945 2.315486 46 75 84
0.286191 0.206503 2.318711 55 90 100
0.524881 -2.207618 4.172841 130 143 145
0.524053 -2.211257 4.160449 121 141 142
0.331101 0.534438 2.571782 56 84 95
0.331101 0.534438 2.571782 56 84 95
0.303504 0.121980 2.348232 64 95 104
0.311740 0.303781 2.385694 69 104 114
0.516790 -2.307764 3.996955 136 147 151
0.307686 0.229284 2.337843 115 145 150
0.510024 -2.346363 3.921453 48 67 75
0.310206 0.217303 2.346131 64 88 94
0.514565 -2.347629 3.933355 128 139 143
0.310615 0.176457 2.335265 113 149 157
0.311679 0.175388 2.339278 104 141 149
0.322606 0.334776 2.408955 122 151 158
0.322606 0.334776 2.408955 122 151 158
0.455208 -1.523405 3.364240 44 66 72
0.328706 0.288721 2.376943 70 105 115
0.324532 0.215701 2.335149 120 155 165
0.324532 0.215701 2.335149 120 155 165
0.593130 -2.125406 4.292546 28 52 58
0.331612 0.188510 2.346778 70 111 120
0.336767 0.291472 2.379181 139 168 175
0.392059 -0.940315 2.795423 73 100 110
0.579879 -2.276227 4.050769 24 46 52
0.354050 -0.184678 2.428175 81 109 120
0.592520 -2.279912 4.038266 51 67 73
0.596430 -2.285564 4.041730 55 75 80
0.557112 -2.139192 3.746941 45 64 71
0.375615 -0.089212 2.489914 62 90 101
0.384597 0.336710 2.424278 33 55 66
0.383806 -0.321823 2.386625 103 131 138
0.451885 -0.849554 2.784849 86 113 123
0.407888 -0.187776 2.439239 51 75 87
0.445854 0.512139 2.562070 75 105 110
0.411990 0.053444 2.354651 86 122 130
0.416740 0.055042 2.356640 145 173 180
0.899000 -2.623842 5.045202 34 63 72
0.500996 -0.895287 2.747492 68 92 98
0.432397 -0.058642 2.310715 112 134 145
0.432397 -0.058642 2.310715 112 134 145
0.477652 0.060421 2.348594 81 112 121
0.483153 0.093996 2.365460 94 126 137
0.548302 0.531918 2.569767 71 104 113
0.525668 -0.330342 2.440358 73 104 113
0.495665 -0.012769 2.290619 80 106 118
0.574765 0.450044 2.528191 68 101 116
0.627220 -0.746957 2.723455 86 116 127
0.627220 -0.746957 2.723455 86 116 127
0.631446 -0.803654 2.698356 61 88 98
0.581029 0.350722 2.461228 89 119 130
0.523393 -0.102732 2.192504 151 175 181
0.598035 0.381431 2.494093 130 156 163
0.533667 -0.090239 2.202864 80 113 122
0.658591 -0.705499 2.719586 84 113 120
0.660833 -0.710185 2.717898 143 165 171
0.660833 -0.710185 2.717898 143 165 171
0.660833 -0.710185 2.717898 143 165 171
0.540507 -0.141969 2.204099 128 156 163
0.540756 -0.091384 2.205091 87 120 129
0.664655 -0.707359 2.715581 86 117 126
0.567240 0.051229 2.287177 87 119 125
0.591409 0.237861 2.371682 129 158 163
0.674713 -0.710789 2.708135 78 107 114
0.670396 -0.566034 2.688325 68 98 109
0.636212 0.450498 2.519943 67 99 112
0.557379 -0.102085 2.204187 60 90 101
0.561232 -0.092141 2.207150 59 94 107
0.651544 0.451379 2.521242 53 80 94
0.692248 -0.631215 2.679932 121 147 154
0.572528 -0.091239 2.187530 149 171 177
0.698159 -0.667297 2.687641 122 150 157
0.601307 0.087682 2.294308 54 83 92
0.664700 0.452479 2.523849 50 79 93
0.648176 0.320153 2.432816 127 156 161
0.747803 -0.815214 2.746064 115 139 145
0.725463 -0.592197 2.647049 122 148 155
0.643165 0.077519 2.313234 36 62 76
0.788607 -0.684951 2.786435 44 70 77
0.782830 -0.560863 2.628065 123 149 155
0.765687 -0.586447 2.514831 56 85 94
0.768827 -0.590051 2.512797 76 104 111
0.810272 -0.539471 2.627882 109 135 141
0.809908 -0.307532 2.577446 61 93 106
0.809908 -0.307532 2.577446 61 93 106
0.802405 -0.671817 2.545022 122 151 158
0.815932 -0.545273 2.524386 137 163 169
0.837200 -0.282470 2.567328 70 101 110
0.830715 -0.545888 2.524724 111 140 149
0.838988 -0.539716 2.523655 117 145 152
0.890953 -0.117627 2.619656 41 61 72
0.863539 -0.588423 2.531648 54 90 108
0.892769 -0.113613 2.612456 59 87 94
0.921197 -0.382738 2.652217 68 103 113
0.908768 0.121455 2.595405 24 34 34
0.908768 0.121455 2.595405 24 34 34
0.923052 -0.440601 2.640535 84 114 125
0.940522 0.351978 2.682177 27 54 68
0.915562 -0.109057 2.606898 61 87 99
0.933394 -0.505786 2.651184 45 61 67
0.958424 -0.315560 2.723137 29 46 49
0.896234 -0.530459 2.537142 130 153 161
0.961375 -0.319822 2.713380 26 48 54
0.961959 -0.326776 2.713319 19 38 45
0.941680 -0.383159 2.652044 54 83 97
0.965622 -0.327882 2.711010 30 52 58
0.953571 -0.398052 2.648895 57 86 95
0.977877 -0.338904 2.705150 46 75 89
0.959733 -0.760039 2.654545 65 88 96
0.959733 -0.760039 2.654545 65 88 96
0.964916 -0.733666 2.666802 46 72 84
0.973438 -0.364530 2.681508 64 90 102
0.980461 -0.403410 2.667176 54 80 94
0.957121 -0.491413 2.588581 72 93 101
0.954839 -0.516092 2.577984 49 67 74
0.989064 -0.439311 2.668423 62 91 100
0.989170 -0.439405 2.668637 62 91 100
0.958713 -0.521950 2.572077 62 81 88
0.959344 -0.514946 2.570322 131 151 156
1.504300 -2.280486 4.076321 51 80 87
0.944966 -0.555459 2.521466 49 75 87
1.004913 -0.425925 2.682958 108 137 144
0.962207 -0.518223 2.564081 133 152 159
1.525324 -2.281651 4.078640 46 72 79
1.525324 -2.281651 4.078640 46 72 79
1.531910 -2.279652 4.076298 44 67 75
0.970367 -0.472983 2.547665 100 120 125
0.971922 -0.536952 2.550172 56 78 84
1.018464 -0.406491 2.661605 79 105 112
1.018529 -0.725293 2.657110 49 71 82
0.971363 -0.485644 2.522432 103 123 128
1.044988 0.495955 2.710544 52 87 97
1.008179 -0.439645 2.597003 87 115 122
0.976403 -0.490353 2.509201 114 132 139
0.991334 -0.627351 2.540264 74 93 100
1.099313 0.652787 2.793074 68 96 107
1.588946 -2.276617 4.073810 46 69 77
1.588946 -2.276617 4.073810 46 69 77
1.106237 0.657144 2.798003 133 153 158
0.989744 -0.640134 2.492649 83 109 116
1.006602 -0.620484 2.532326 82 101 106
1.607124 -2.276666 4.074665 41 65 71
1.607124 -2.276666 4.074665 41 65 71
1.071223 0.460800 2.682982 56 91 104
1.035517 -0.357279 2.591164 77 102 112
1.079974 0.481782 2.688822 64 93 102
1.081783 0.484856 2.689546 47 76 85
1.008985 -0.631560 2.502796 148 164 170
1.005014 -0.638067 2.488900 93 115 121
1.006102 -0.649337 2.467243 90 111 119
1.023454 -0.617337 2.511861 99 117 124
1.021842 -0.623120 2.501492 93 112 119
1.656046 -2.276540 4.074586 47 73 79
1.077730 0.239178 2.615129 38 61 69
0.999593 -0.492844 2.414206 144 165 173
1.083626 0.000192 2.614129 55 81 88
1.056936 -0.379892 2.544405 141 163 169
1.120722 0.492178 2.668529 71 99 110
1.120722 0.492178 2.668529 71 99 110
1.689901 -2.276696 4.073314 54 80 87
1.113031 0.449222 2.649631 80 109 118
1.023612 -0.454221 2.423673 129 152 160
1.697117 -2.275049 4.072015 51 74 82
1.027828 -0.452493 2.416548 83 112 121
1.031275 -0.463352 2.409248 141 160 168
1.036103 -0.442606 2.421764 129 154 164
1.039461 -0.438126 2.423110 128 151 159
1.042275 -0.629183 2.427446 91 113 119
1.081794 -0.381458 2.503067 81 106 116
1.055975 -0.449941 2.433947 62 86 92
1.087321 -0.327158 2.506048 70 100 111
1.091326 0.179568 2.497407 92 113 121
1.075361 -0.574456 2.454868 126 144 151
1.111553 0.296874 2.538788 86 114 125
1.099657 0.230540 2.501802 94 117 125
1.062063 -0.500536 2.411847 111 133 138
1.102222 -0.394288 2.503062 146 162 168
1.093894 0.186205 2.480699 97 116 123
1.059897 -0.511014 2.400279 72 91 99
1.059945 -0.586094 2.399366 92 113 121
1.153861 0.545528 2.618341 92 116 122
1.058677 -0.598078 2.395930 134 159 169
1.075837 -0.433837 2.434254 65 87 93
1.103357 0.234955 2.496028 92 113 121
1.072126 -0.492149 2.419594 104 126 131
1.110268 -0.384798 2.508517 131 151 156
1.073801 -0.575750 2.416444 63 81 88
1.074234 -0.492797 2.413385 104 126 132
1.119309 -0.383678 2.516183 46 69 77
1.107607 -0.414785 2.487860 98 116 117
1.170882 0.611229 2.633472 78 105 115
1.068727 -0.500505 2.396022 129 147 154
1.067027 -0.719077 2.383707 128 150 156
1.086786 -0.488265 2.431053 36 48 52
1.108938 -0.401555 2.479433 124 140 146
1.093064 -0.479935 2.437062 100 121 123
1.071614 -0.634959 2.385215 68 94 106
1.132350 -0.374298 2.518253 135 153 160
1.079873 -0.588667 2.390961 66 90 96
1.077780 -0.633226 2.384994 52 81 90
1.081671 -0.624192 2.393684 72 99 109
1.099977 -0.481082 2.434724 90 112 117
1.114218 -0.433039 2.466506 101 121 126
1.089540 -0.499039 2.409737 45 70 80
1.082134 -0.630569 2.392030 138 157 164
1.083644 -0.593183 2.390795 123 149 155
1.085909 -0.623327 2.395451 151 173 179
1.086036 -0.623457 2.395687 151 173 179
1.116414 -0.442838 2.465119 95 114 121
1.121628 -0.437663 2.458861 117 136 141
1.121628 -0.437663 2.458861 117 136 141
1.117540 -0.450998 2.447039 50 74 80
1.120715 -0.412869 2.446093 132 146 152
1.906675 -2.106793 4.224028 56 72 78
1.906632 -2.097346 4.221187 55 71 77
1.122165 -0.443878 2.447698 56 75 80
1.943051 -2.041978 4.296010 46 63 66
1.096480 -0.642976 2.379384 81 102 110
1.095307 -0.618194 2.376172 121 143 149
1.113551 -0.589139 2.414900 53 71 78
1.126687 -0.442727 2.440584 70 89 94
1.100535 -0.655954 2.381126 115 139 145
1.100535 -0.655954 2.381126 115 139 145
1.128306 -0.420717 2.432280 88 109 117
1.127682 -0.452766 2.430134 100 119 126
1.123812 -0.137368 2.406446 74 106 112
1.132343 -0.464609 2.421548 143 161 168
1.133513 -0.477484 2.422668 97 116 123
1.157308 -0.568901 2.463584 54 73 78
1.157308 -0.568901 2.463584 54 73 78
1.137512 -0.582969 2.410252 106 125 128
1.107362 -0.686752 2.341453 67 94 104
1.183323 0.510076 2.505383 153 173 178
1.164374 -0.559906 2.464857 59 78 85
1.139825 -0.327457 2.401895 136 156 161
1.128232 -0.175974 2.371523 117 146 155
1.897555 -2.213281 4.048275 50 69 74
1.130821 -0.167412 2.372773 67 99 110
1.178339 -0.538070 2.473759 63 85 90
1.174620 -0.560366 2.455965 121 140 147
1.210660 0.582568 2.533085 67 96 110
1.172973 -0.574064 2.451205 66 85 88
1.151529 -0.328844 2.404035 108 139 148
1.145468 -0.661136 2.388751 125 147 153
1.145722 -0.661375 2.389175 125 147 153
1.151621 0.137528 2.400088 141 162 170
1.154026 -0.359000 2.402483 59 94 104
1.199424 0.530998 2.493217 27 57 74
1.150995 -0.156862 2.387486 66 95 102
1.135065 -0.236169 2.351707 89 108 115
1.155647 -0.378778 2.396066 150 169 177
1.156458 -0.168898 2.391490 46 75 82
1.162284 -0.365205 2.404739 122 148 154
1.162995 -0.634026 2.404706 46 70 82
1.165144 -0.582512 2.409363 47 72 82
1.162069 -0.375211 2.397962 68 100 113
1.229407 0.592128 2.539593 74 109 119
1.229407 0.592128 2.539593 74 109 119
1.167332 -0.359577 2.405134 60 90 101
1.207889 0.530577 2.490475 71 100 114
1.159527 -0.671305 2.382736 59 85 92
1.178907 -0.333485 2.421332 101 136 146
1.167656 -0.662678 2.392703 81 108 118
1.174369 -0.369457 2.402970 112 138 145
1.165345 -0.406984 2.381642 86 112 124
1.165345 -0.406984 2.381642 86 112 124
1.176287 -0.649841 2.398510 61 86 96
1.218279 0.521650 2.480792 74 104 115
1.186175 -0.361125 2.404500 57 81 93
1.172288 -0.701782 2.374894 72 102 113
1.172288 -0.701782 2.374894 72 102 113
1.184189 -0.379164 2.397751 129 155 162
1.230612 0.535786 2.491378 50 76 90
1.181373 -0.398695 2.386345 87 114 124
1.242537 0.559450 2.511169 67 97 108
1.168383 -0.197699 2.349233 77 104 118
1.188327 -0.672146 2.379750 83 103 114
1.195100 -0.658681 2.390835 83 110 120
1.274885 0.611611 2.552949 115 141 148
1.245814 0.534025 2.493102 47 74 88
1.245814 0.534025 2.493102 47 74 88
1.279058 0.616433 2.556930 45 72 86
1.192332 -0.679787 2.370614 129 147 154
1.201618 -0.661951 2.388394 57 79 91
1.197922 -0.670239 2.379027 127 146 153
1.186006 -0.227007 2.352990 129 149 154
1.196272 -0.678271 2.373615 65 91 98
1.282669 0.606841 2.548786 54 86 97
1.219650 -0.377886 2.418555 84 108 114
1.263166 0.554486 2.506718 70 100 111
1.260203 0.543212 2.499979 130 152 158
1.219154 -0.381317 2.414370 33 55 61
1.209659 -0.668010 2.386578 117 144 154
1.207379 -0.406797 2.381399 137 159 165
1.214282 0.412458 2.394704 63 90 100
1.276990 0.566937 2.517284 74 103 112
1.269111 0.542873 2.500650 124 150 156
1.290180 0.593361 2.539832 58 85 95
1.290180 0.593361 2.539832 58 85 95
1.294610 0.606537 2.548538 47 73 85
1.294610 0.606537 2.548538 47 73 85
1.309973 0.643152 2.578719 95 124 133
1.165414 0.234339 2.279062 102 121 129
1.309561 0.626922 2.568455 65 100 110
1.309561 0.626922 2.568455 65 100 110
1.490733 1.177816 2.929119 116 142 148
1.225615 -0.401714 2.387716 129 149 154
1.303757 0.599018 2.546654 112 136 142
1.301144 0.587960 2.535736 107 135 142
1.305979 0.593560 2.540962 56 87 102
1.316787 0.602642 2.548874 60 94 107
1.257582 -0.376290 2.416811 135 151 157
1.337591 0.632678 2.573406 120 143 151
1.263980 -0.361412 2.421876 87 106 119
1.339235 0.628423 2.568598 68 100 113
1.262186 -0.371621 2.412060 153 169 175
1.262186 -0.371621 2.412060 153 169 175
1.296613 0.513405 2.478063 68 98 109
1.332171 0.597254 2.543259 116 140 146
1.512065 1.208702 2.889592 68 87 90
1.272991 0.429427 2.406274 50 76 88
1.161047 0.018979 2.185358 81 107 123
1.274202 -0.376026 2.405802 63 89 101
1.345632 0.590675 2.537673 58 88 105
1.293047 -0.332330 2.426377 133 151 158
1.174278 0.025436 2.184074 73 102 116
1.184884 0.004180 2.193857 62 83 91
1.195745 0.002050 2.193757 128 148 153
1.304297 -0.350879 2.400328 80 100 111
1.306294 -0.343119 2.401259 131 152 160
1.305487 -0.350740 2.396150 68 91 99
1.311710 -0.334670 2.405488 130 152 158
1.318561 0.438421 2.415380 62 94 107
1.310491 -0.349305 2.395054 65 86 94
1.314893 -0.336538 2.400688 76 100 112
1.380924 0.571735 2.519994 58 92 105
1.325843 -0.325110 2.407044 75 99 111
1.224726 0.170423 2.207700 86 116 127
1.326442 -0.333487 2.396876 87 109 120
1.213577 0.017459 2.184992 71 94 109
1.247131 0.238232 2.245600 75 105 116
1.423401 0.644133 2.574055 93 122 131
1.333086 -0.324472 2.403152 142 160 167
1.462040 0.847162 2.644147 79 108 117
1.377313 0.543038 2.485643 117 142 152
1.309621 0.367422 2.353709 67 99 112
1.368161 -0.438339 2.462654 27 43 49
1.222569 0.010157 2.188562 122 146 152
1.222569 0.010157 2.188562 122 146 152
1.499135 0.963231 2.703985 95 117 122
1.328109 0.399492 2.382179 76 108 114
1.401307 0.581847 2.517210 117 140 148
1.383506 0.524487 2.482117 129 153 159
1.383506 0.524487 2.482117 129 153 159
1.361653 -0.285939 2.430348 117 138 146
1.233813 0.006113 2.191615 130 153 161
1.237539 -0.004375 2.197335 61 87 101
1.416390 0.577095 2.522073 97 123 130
1.348778 0.419199 2.396809 60 93 108
1.368379 -0.283931 2.431268 111 134 142
1.407121 0.550833 2.498876 106 133 137
1.298253 0.290108 2.292162 61 92 101
1.371297 -0.290126 2.421906 33 45 49
1.423501 0.537323 2.498596 35 47 51
1.378731 -0.307461 2.411976 123 143 144
1.260346 0.101376 2.192222 87 114 124
1.271234 -0.016764 2.203825 77 104 118
1.606922 1.161929 2.809577 139 154 156
1.288643 -0.047149 2.223260 64 91 101
1.391519 0.431131 2.400536 100 128 139
1.282662 0.003514 2.192285 136 158 164
1.284128 0.104040 2.191301 73 101 108
1.286977 -0.001797 2.194819 76 103 117
1.280857 0.061189 2.183471 77 103 117
1.316796 0.242345 2.247695 60 90 101
1.435482 0.592435 2.452010 141 160 165
1.384170 0.356269 2.349702 112 135 143
1.399390 0.383295 2.367615 32 44 46
1.328431 -0.072244 2.235210 85 110 120
1.593594 1.004928 2.696631 139 159 164
1.594229 1.004952 2.697592 139 159 164
1.373484 0.303336 2.298707 126 147 155
1.517440 0.766961 2.532375 98 122 128
1.343377 0.219040 2.224500 65 97 110
1.354120 -0.073473 2.235556 89 110 118
1.357135 -0.080630 2.236358 123 149 156
1.385203 0.279675 2.278805 109 134 144
1.344744 0.196426 2.206647 63 97 110
1.335522 0.022950 2.180578 70 86 93
1.361805 -0.028897 2.211215 134 160 167
1.630737 0.967392 2.663185 74 100 107
1.358774 0.178194 2.200712 135 154 161
1.638139 0.971521 2.666756 131 148 151
1.379985 0.221337 2.228228 86 116 127
1.362168 -0.003593 2.196350 124 152 159
1.373376 0.190001 2.208117 82 114 125
1.374779 0.189678 2.209217 87 116 125
1.374873 0.168735 2.204674 30 41 45
1.723307 1.135347 2.776861 77 102 106
1.723307 1.135347 2.776861 77 102 106
1.367017 0.065178 2.178060 113 135 140
1.370315 0.077875 2.180645 122 143 151
1.370968 0.085142 2.181503 115 136 144
1.373702 0.104832 2.185425 121 143 149
1.368438 0.057320 2.176418 118 137 144
1.393117 0.204035 2.217171 136 152 158
1.368776 0.044460 2.174532 106 124 131
1.370562 0.070731 2.175127 32 52 63
1.372482 0.037503 2.177547 30 46 52
1.374805 0.087343 2.180655 32 60 71
1.374065 0.055328 2.177985 24 49 59
1.373946 0.047651 2.176812 35 58 66
1.450599 -0.343983 2.297713 141 157 163
1.559764 0.674179 2.450461 136 156 161
1.432113 0.352510 2.240091 90 112 118
1.463865 -0.367883 2.281347 68 101 110
1.777006 1.145261 2.779993 79 101 106
1.777006 1.145261 2.779993 79 101 106
1.463647 -0.372135 2.269708 147 163 169
1.681822 0.905650 2.612667 83 105 110
1.458608 -0.398571 2.251303 70 96 103
1.462787 -0.392270 2.253043 147 166 169
1.754715 1.056411 2.716743 84 106 112
1.452430 -0.417751 2.229663 42 71 80
1.458627 -0.408288 2.238446 148 167 172
1.550506 0.580984 2.380635 150 169 174
1.451085 -0.429741 2.219671 56 85 92
1.702791 0.909485 2.615241 136 151 153
1.603546 0.683999 2.453377 130 152 157
1.411483 -0.224060 2.144512 108 127 134
1.445647 -0.446829 2.198189 71 100 105
1.446686 -0.454201 2.186879 157 169 173
1.544452 0.530186 2.341630 140 159 162
1.436412 -0.483241 2.159604 58 86 93
1.373008 0.090002 2.043761 96 115 122
1.916224 1.261732 2.850517 120 135 138
1.364371 0.032992 1.985038 111 127 133
1.358360 0.017219 1.973046 98 126 133
1.897604 1.171563 2.788514 129 148 151
1.848314 1.042649 2.699143 140 155 158
1.773032 0.870236 2.578785 139 153 159
1.370725 -0.097950 1.966031 104 121 130
1.409938 0.102664 2.024727 92 115 123
1.409938 0.102664 2.024727 92 115 123
1.582737 0.465130 2.285320 143 161 162
1.919723 1.179132 2.793099 76 101 105
1.471268 0.231188 2.098121 67 96 110
1.471268 0.231188 2.098121 67 96 110
1.964928 1.239156 2.829211 84 101 104
1.964928 1.239156 2.829211 84 101 104
1.527988 -0.464088 2.170780 91 112 120
1.589144 0.432597 2.258095 145 157 161
1.564801 0.378860 2.216544 78 104 111
1.793623 0.839107 2.554319 83 107 113
1.995321 1.267088 2.847485 124 136 140
1.549070 -0.451576 2.186022 97 116 123
1.546621 -0.457292 2.179526 98 114 120
1.546621 -0.457292 2.179526 98 114 120
1.572839 0.382874 2.219076 140 157 160
1.772158 0.779598 2.512336 86 108 114
1.625011 0.481582 2.293920 140 156 162
1.625011 0.481582 2.293920 140 156 162
1.549108 0.325501 2.171714 135 148 150
1.922502 1.069026 2.713327 138 153 156
1.555126 0.324058 2.170636 81 105 111
1.928162 1.071654 2.714608 86 105 112
1.573264 -0.443562 2.193650 93 116 124
1.435274 0.082150 1.992975 157 168 172
1.638314 0.474834 2.287913 86 108 114
1.661817 0.516468 2.319273 137 154 157
1.651500 0.493439 2.301590 142 157 160
1.606961 0.405215 2.234037 91 110 117
1.907818 1.008601 2.669937 132 149 152
1.642826 -0.364203 2.272686 92 116 122
1.642826 -0.364203 2.272686 92 116 122
1.627443 -0.388566 2.249773 86 108 114
1.491062 0.168078 2.051719 53 86 95
1.511398 0.210563 2.078493 136 155 160
1.487862 0.155415 2.039221 40 73 82
1.590213 0.339683 2.182568 135 154 159
1.490915 0.159010 2.038639 129 157 164
1.469298 0.119500 2.004832 68 94 101
1.937850 1.014674 2.671839 84 106 112
1.489500 0.148514 2.028813 137 159 165
1.552489 0.257915 2.117762 133 152 157
1.565843 0.269738 2.124641 82 110 117
1.484640 0.128104 2.008066 136 156 161
1.685710 -0.352817 2.283829 97 116 123
1.681813 0.461669 2.274959 145 161 167
1.794170 0.668684 2.428283 79 102 110
1.696181 -0.348313 2.287389 82 108 115
1.475566 0.085075 1.977542 53 86 95
1.572875 0.255415 2.112429 85 113 120
1.572875 0.255415 2.112429 85 113 120
1.478181 0.081421 1.971092 153 166 168
1.928051 0.910417 2.597744 73 97 103
1.932017 0.912935 2.597879 126 148 153
2.112716 1.277817 2.846979 116 128 132
1.537211 0.166449 2.042075 128 148 153
1.925998 0.890985 2.582125 82 104 110
1.915461 0.866118 2.566913 72 100 107
1.468668 0.045434 1.942699 72 98 105
1.910417 0.850969 2.555704 78 102 108
1.910417 0.850969 2.555704 78 102 108
2.123131 1.280428 2.847861 112 126 132
1.567922 0.200938 2.069105 87 110 118
1.729792 -0.343270 2.291436 88 109 117
2.130476 1.280310 2.846388 120 132 136
1.729680 -0.348440 2.287117 84 111 121
1.466557 0.029291 1.921354 150 163 165
2.135548 1.277300 2.845213 110 125 128
1.462614 0.011625 1.912997 65 94 99
1.735446 -0.353489 2.282471 96 117 125
1.707021 0.424659 2.244349 89 108 115
1.599502 0.230938 2.091492 83 105 110
1.698934 0.401525 2.224619 84 106 112
1.469665 0.016652 1.910408 91 110 117
1.839683 0.657826 2.417075 80 103 111
1.839683 0.657826 2.417075 80 103 111
1.460174 -0.008821 1.896645 59 85 92
1.462819 0.001031 1.898397 154 166 168
1.975220 0.906748 2.590343 76 95 102
1.455023 -0.024807 1.879047 59 81 87
1.439391 -0.047671 1.855827 80 99 104
1.746318 -0.364454 2.269957 95 114 121
1.746318 -0.364454 2.269957 95 114 121
1.622576 0.245221 2.102472 88 112 118
1.753278 -0.360473 2.274239 92 111 119
1.512093 0.057697 1.945150 126 148 153
1.451415 -0.044327 1.861615 58 82 88
1.623467 0.226929 2.087275 93 112 119
1.461883 -0.029328 1.868938 84 99 108
1.452669 -0.050532 1.853065 144 159 162
1.787787 -0.333374 2.301571 65 93 100
1.629092 0.230282 2.089720 135 152 155
1.769723 -0.358932 2.276565 93 115 121
1.631450 0.233951 2.091264 80 106 113
1.802967 0.527515 2.318942 132 147 150
1.801303 0.514847 2.310886 81 107 114
1.788537 -0.344434 2.291430 135 154 161
1.774211 -0.365845 2.270269 89 111 122
1.805779 -0.328343 2.304330 132 154 159
1.805779 -0.328343 2.304330 132 154 159
1.800802 -0.337063 2.297527 84 107 115
1.570446 0.099454 1.979688 71 99 106
1.615672 0.166540 2.037167 137 154 157
1.615672 0.166540 2.037167 137 154 157
1.655325 0.229568 2.088799 80 106 113
1.776766 -0.390140 2.245128 85 107 113
1.577417 0.102039 1.982213 132 149 152
1.734509 -0.447320 2.187790 86 109 117
1.734509 -0.447320 2.187790 86 109 117
1.752129 0.385081 2.209834 139 156 159
1.538439 0.035449 1.924528 77 105 112
1.743710 -0.463960 2.170806 91 109 116
1.743710 -0.463960 2.170806 91 109 116
1.749630 -0.461636 2.174020 137 154 157
1.752755 -0.458665 2.174881 93 112 119
1.776276 -0.446768 2.187453 84 106 112
2.152129 1.039962 2.673696 79 91 101
1.785185 -0.442329 2.193191 97 111 117
2.279349 1.277227 2.828900 68 88 93
2.281805 1.264980 2.824165 75 87 91
2.286644 1.260975 2.819359 13 18 21
1.830862 -0.407044 2.227633 77 93 100
1.830862 -0.407044 2.227633 77 93 100
2.029856 0.764140 2.483336 75 94 101
1.810854 -0.435729 2.199733 135 151 157
1.574752 0.007680 1.898830 131 148 151
2.282412 1.227295 2.796265 19 21 22
1.638041 0.084129 1.965411 80 102 113
1.579117 -0.004183 1.888029 74 101 111
1.579117 -0.004183 1.888029 74 101 111
1.673679 0.108004 1.984310 56 85 100
1.905006 -0.364280 2.269875 87 106 113
1.840311 -0.455730 2.179383 91 107 114
1.938357 0.494710 2.286660 133 148 151
1.892659 0.418555 2.228211 76 87 95
1.908967 0.427293 2.236135 135 154 159
1.955492 0.495605 2.286600 134 146 150
1.711543 0.111899 1.985787 71 97 109
2.014784 0.584604 2.351527 69 85 92
2.014784 0.584604 2.351527 69 85 92
1.914906 0.407305 2.219351 68 90 102
1.914906 0.407305 2.219351 68 90 102
1.910977 -0.425766 2.210900 89 105 112
1.737481 0.090513 1.966659 133 146 148
2.038750 -0.334630 2.299446 114 128 134
1.726751 0.028259 1.912395 73 94 102
2.064601 -0.331913 2.301982 62 73 77
2.076652 -0.317154 2.314841 99 109 109
2.075329 -0.310602 2.312215 9 14 13
2.042392 -0.363902 2.272329 55 70 79
2.075749 -0.324956 2.308946 93 97 98
2.064982 -0.344854 2.288776 88 97 100
1.964685 0.352105 2.173611 76 95 102
1.798734 0.104445 1.977287 78 96 107
2.055654 -0.365969 2.270182 92 106 112
2.056536 -0.378326 2.263624 78 94 101
1.815067 0.103642 1.976494 128 142 148
1.937361 0.272784 2.110996 75 92 101
2.041056 -0.422601 2.216844 43 56 64
2.056800 -0.405692 2.232403 18 22 23
2.030414 -0.440114 2.198809 57 67 77
1.835194 0.092759 1.967835 128 145 148
2.036196 -0.462993 2.184039 86 99 107
2.036925 -0.460986 2.178370 90 102 106
1.945728 0.225685 2.073996 60 80 91
